<?xml version="1.0" encoding="UTF-8" standalone="no"?><svg xmlns="http://www.w3.org/2000/svg" xmlns:xlink="http://www.w3.org/1999/xlink" contentScriptType="application/ecmascript" contentStyleType="text/css" height="309px" preserveAspectRatio="none" style="width:158px;height:309px;" version="1.1" viewBox="0 0 158 309" width="158px" zoomAndPan="magnify"><defs><filter height="300%" id="fx7gldropucr0" width="300%" x="-1" y="-1"><feGaussianBlur result="blurOut" stdDeviation="2.0"/><feColorMatrix in="blurOut" result="blurOut2" type="matrix" values="0 0 0 0 0 0 0 0 0 0 0 0 0 0 0 0 0 0 .4 0"/><feOffset dx="4.0" dy="4.0" in="blurOut2" result="blurOut3"/><feBlend in="SourceGraphic" in2="blurOut3" mode="normal"/></filter></defs><g><!--MD5=[b4e09d266be9964199f2622adcc056fa]
cluster Backend--><polygon fill="#FFFFFF" filter="url(#fx7gldropucr0)" points="22,114,95,114,102,136.2969,136,136.2969,136,297,22,297,22,114" style="stroke: #000000; stroke-width: 1.5;"/><line style="stroke: #000000; stroke-width: 1.5;" x1="22" x2="102" y1="136.2969" y2="136.2969"/><text fill="#000000" font-family="sans-serif" font-size="14" font-weight="bold" lengthAdjust="spacingAndGlyphs" textLength="67" x="26" y="128.9951">Backend</text><!--MD5=[882d427731b8996ea61baead327bb543]
entity Go App--><rect fill="#FEFECE" filter="url(#fx7gldropucr0)" height="36.2969" style="stroke: #A80036; stroke-width: 1.5;" width="71" x="43.5" y="149"/><rect fill="#FEFECE" height="5" style="stroke: #A80036; stroke-width: 1.5;" width="10" x="38.5" y="154"/><rect fill="#FEFECE" height="5" style="stroke: #A80036; stroke-width: 1.5;" width="10" x="38.5" y="175.2969"/><text fill="#000000" font-family="sans-serif" font-size="14" lengthAdjust="spacingAndGlyphs" textLength="51" x="53.5" y="171.9951">Go App</text><!--MD5=[7fbd20eab0f047d95d8cf961cd333b40]
entity Postgres--><rect fill="#FEFECE" filter="url(#fx7gldropucr0)" height="36.2969" style="stroke: #A80036; stroke-width: 1.5;" width="82" x="38" y="245"/><rect fill="#FEFECE" height="5" style="stroke: #A80036; stroke-width: 1.5;" width="10" x="33" y="250"/><rect fill="#FEFECE" height="5" style="stroke: #A80036; stroke-width: 1.5;" width="10" x="33" y="271.2969"/><text fill="#000000" font-family="sans-serif" font-size="14" lengthAdjust="spacingAndGlyphs" textLength="62" x="48" y="267.9951">Postgres</text><!--MD5=[fee662a292a0353a69bd162820bae93b]
entity User--><ellipse cx="79" cy="17.5" fill="#FEFECE" filter="url(#fx7gldropucr0)" rx="8" ry="8" style="stroke: #A80036; stroke-width: 1.5;"/><path d="M79,25.5 L79,52.5 M66,33.5 L92,33.5 M79,52.5 L66,67.5 M79,52.5 L92,67.5 " fill="none" filter="url(#fx7gldropucr0)" style="stroke: #A80036; stroke-width: 1.5;"/><text fill="#000000" font-family="sans-serif" font-size="14" lengthAdjust="spacingAndGlyphs" textLength="32" x="63" y="85.9951">User</text><!--MD5=[44a73b69167e7509c1b90b9dd8a3b571]
link Go App to Postgres--><path d="M79,185.24 C79,200.48 79,222.81 79,239.46 " fill="none" id="Go App-&gt;Postgres" style="stroke: #A80036; stroke-width: 1.0;"/><polygon fill="#A80036" points="79,244.87,83,235.87,79,239.87,75,235.87,79,244.87" style="stroke: #A80036; stroke-width: 1.0;"/><!--MD5=[d8bc6ffb2f6f0a0e6bab3874189271c4]
link User to Go App--><path d="M79,89.27 C79,107.35 79,128.08 79,143.43 " fill="none" id="User-&gt;Go App" style="stroke: #A80036; stroke-width: 1.0;"/><polygon fill="#A80036" points="79,148.83,83,139.83,79,143.83,75,139.83,79,148.83" style="stroke: #A80036; stroke-width: 1.0;"/><!--MD5=[bbf85cff0d270beb4490b2ef705c7866]
@startuml
package "Backend" {
	[Go App] - -> [Postgres]
}
actor User
User - -> [Go App]
@enduml

PlantUML version 1.2020.02(Sun Mar 01 11:22:07 CET 2020)
(GPL source distribution)
Java Runtime: OpenJDK Runtime Environment
JVM: OpenJDK 64-Bit Server VM
Java Version: 17.0.15+6-Debian-1deb12u1
Operating System: Linux
Default Encoding: UTF-8
Language: en
Country: US
--></g></svg>